# xmcd CD database file
#
# Track frame offsets:
#	150
#	8707
#	30765
#	50950
#	70462
#	90477
#	130487
#	162712
#	180555
#	200027
#	224832
#	245595
#	270825
#	285361
#	300242
#	314058
#	342115
#
# Disc length: 4775 seconds
#
# Revision: 1
# Processed by: cddbd v1.5.1PL2 Copyright (c) Steve Scherf et al.
# Submitted via: Feurio! 1.68 - http://www.feurio.com
#
DISCID=fb12a511
DTITLE=Little Feat - Live  CD 1
DYEAR=1900
DGENRE=Bluesrock
TTITLE0=Join The Band
TTITLE1=Fat Man In The Bathub
TTITLE2=All That Your Dream
TTITLE3=Oh, Atlanta
TTITLE4=Old Folks Boogie
TTITLE5=Dixie Chicken
TTITLE6=Tripe Face Boogie
TTITLE7=Rocket In My Pocket
TTITLE8=Time Loves A Hero
TTITLE9=Day Or Night
TTITLE10=Mercenary Territory
TTITLE11=Spanish Moon
TTITLE12=Fool Yourself
TTITLE13=Easy To Slip
TTITLE14=Two Trains
TTITLE15=The Fan
TTITLE16=High Roller
EXTD=
EXTT0=
EXTT1=
EXTT2=
EXTT3=
EXTT4=
EXTT5=
EXTT6=
EXTT7=
EXTT8=
EXTT9=
EXTT10=
EXTT11=
EXTT12=
EXTT13=
EXTT14=
EXTT15=
EXTT16=
PLAYORDER=
